<svg width="25" height="25" viewBox="0 0 25 25" fill="none" xmlns="http://www.w3.org/2000/svg">
<path fill-rule="evenodd" clip-rule="evenodd" d="M16.0551 23.4615C20.3857 21.9455 23.5 17.7367 23.5 12.7819C23.5 6.55106 18.5751 1.5 12.5 1.5C6.42487 1.5 1.5 6.55106 1.5 12.7819C1.5 17.7387 4.61684 21.9489 8.9501 23.4633C9.47659 23.5655 9.65132 23.4598 9.77071 23.0718V20.8684C7.73989 21.0242 6.79493 20.9312 6.16133 19.7887C5.80072 18.8103 5.50075 18.3847 4.8293 17.8496C4.56432 17.6854 4.46559 17.5676 4.39961 17.2987C4.67776 17.1685 4.84263 17.1233 5.21602 17.2546C5.96797 17.5191 6.26875 17.7394 6.67696 18.4886C7.67764 19.7383 8.34987 19.8056 9.77071 19.2598C9.94397 18.4045 10.1146 18.1254 10.5012 17.8496C7.94178 17.276 6.84094 16.7837 6.16133 15.2495C5.61091 14.232 5.45019 13.4623 5.49532 11.6357C5.77605 10.343 6.01344 9.79556 6.63399 9.25597C6.30517 8.22786 6.29024 7.383 6.71992 6.14905C7.9205 6.14905 8.48783 6.52793 9.4023 7.13863C9.51879 7.21643 9.64092 7.29799 9.77071 7.383C11.8937 6.78144 13.0833 6.82918 15.2063 7.383C16.3096 6.64623 16.9335 6.24926 18.2355 6.10498C18.6804 7.36365 18.6679 8.05013 18.3859 9.25597C19.0805 10.0475 19.337 10.5603 19.4816 11.6357C19.5621 13.1437 19.4816 13.8302 18.9016 15.2495C18.3215 16.6688 16.6874 17.4335 14.4973 17.7614C14.9109 18.2154 14.9914 18.4005 15.1633 19.0174C15.2492 19.392 15.2737 20.3118 15.2277 22.9396C15.3074 23.4763 15.5016 23.5637 16.0441 23.4464L16.0551 23.4615Z" fill="black"/>
</svg>
