<svg width="25" height="25" viewBox="0 0 25 25" fill="none" xmlns="http://www.w3.org/2000/svg">
<path d="M21.34 5.10987C20.8292 4.59888 20.2228 4.19352 19.5554 3.91696C18.8879 3.64039 18.1725 3.49805 17.45 3.49805C16.7275 3.49805 16.0121 3.64039 15.3446 3.91696C14.6772 4.19352 14.0708 4.59888 13.56 5.10987L12.5 6.16987L11.44 5.10987C10.4083 4.07818 9.00903 3.49858 7.55 3.49858C6.09096 3.49858 4.69169 4.07818 3.66 5.10987C2.6283 6.14156 2.04871 7.54084 2.04871 8.99987C2.04871 10.4589 2.6283 11.8582 3.66 12.8899L4.72 13.9499L12.5 21.7299L20.28 13.9499L21.34 12.8899C21.851 12.3791 22.2563 11.7727 22.5329 11.1052C22.8095 10.4378 22.9518 9.72236 22.9518 8.99987C22.9518 8.27738 22.8095 7.56198 22.5329 6.89452C22.2563 6.22706 21.851 5.62063 21.34 5.10987V5.10987Z" stroke="white" stroke-width="2" stroke-linecap="round" stroke-linejoin="round"/>
</svg>
