<svg width="24" height="25" viewBox="0 0 24 25" fill="none" xmlns="http://www.w3.org/2000/svg">
<path fill-rule="evenodd" clip-rule="evenodd" d="M12 23.4443C18.0751 23.4443 23 18.5319 23 12.4722C23 6.4124 18.0751 1.5 12 1.5C5.92487 1.5 1 6.4124 1 12.4722C1 14.5597 1.58449 16.5112 2.59914 18.1725L1.16751 23.5001L6.55025 22.0052C8.1568 22.921 10.0171 23.4443 12 23.4443ZM11.9536 21.3238C16.8208 21.3238 20.7665 17.3881 20.7665 12.5333C20.7665 7.67837 16.8208 3.74271 11.9536 3.74271C7.08643 3.74271 3.14077 7.67837 3.14077 12.5333C3.14077 14.2058 3.60904 15.7692 4.42193 17.1002L3.27498 21.3683L7.58729 20.1708C8.87445 20.9045 10.3649 21.3238 11.9536 21.3238Z" fill="black"/>
<path d="M14.2335 14.2313L13.1726 15.3481C11.2549 14.492 10.3355 13.7972 9.26393 11.7744L9.98982 10.881C10.1895 10.5106 10.1762 10.3022 9.98982 9.93181L8.98474 7.86582C7.94524 7.46158 7.39295 7.75567 6.47205 9.37343C6.40141 10.2523 6.39865 10.7334 6.6954 11.4953C8.57535 15.2104 10.2188 16.448 13.8984 17.5816C14.6795 17.7756 15.0938 17.7696 15.7969 17.5816C16.9089 17.047 17.2781 16.5473 17.1929 15.0689L14.9594 14.0638C14.6107 13.9505 14.4384 13.9506 14.2335 14.2313Z" fill="black"/>
</svg>
